<?xml version="1.0" encoding="utf-8"?>
<!-- Generator: Adobe Illustrator 21.1.0, SVG Export Plug-In . SVG Version: 6.00 Build 0)  -->
<svg version="1.1" id="レイヤー_1" xmlns="http://www.w3.org/2000/svg" xmlns:xlink="http://www.w3.org/1999/xlink" x="0px"
	 y="0px" viewBox="0 0 96 20" style="enable-background:new 0 0 96 20;" xml:space="preserve">
<g>
	<path d="M13.7,7.9H8.4c0,0,0,0,0,0v2c0,0,0,0.1,0,0.1h2.9c-0.1,0.7-0.5,1.4-1,1.8c-0.6,0.5-1.3,0.7-2.2,0.7c-0.9,0-1.7-0.3-2.4-0.9
		C5,11,4.6,10,4.6,8.5c0-1.5,0.3-2.6,1-3.3c0.6-0.7,1.5-1.1,2.5-1.1c0.5,0,1,0.1,1.4,0.3c0.8,0.3,1.3,0.9,1.4,1.7c0,0,0,0,0,0h2.6h0
		c0,0,0.1,0,0.1,0c0,0,0,0,0,0C13.5,4.9,12.9,4,12,3.2C11,2.4,9.7,2,8,2C6.2,2,4.7,2.6,3.5,3.8C2.4,5,1.8,6.6,1.8,8.5
		c0,1.9,0.6,3.5,1.7,4.6c1.1,1.1,2.5,1.7,4.2,1.7c1,0,1.9-0.2,2.6-0.6c0.4-0.2,0.8-0.6,1.3-1.1l0.2,1.4c0,0,0,0,0,0h1.8c0,0,0,0,0,0
		L13.7,7.9C13.7,7.9,13.7,7.9,13.7,7.9z"/>
	<path d="M20.6,5.3c-0.1,0-0.2,0-0.2,0c0,0-0.1,0-0.1,0c-0.7,0-1.4,0.2-1.8,0.6c-0.3,0.2-0.6,0.6-0.9,1.1V5.5c0,0,0,0,0,0h-2.3
		c0,0-0.1,0-0.1,0v8.9c0,0,0,0,0.1,0h2.5c0,0,0.1,0,0.1,0v-4.3c0-0.7,0.1-1.2,0.3-1.6c0.3-0.6,1-0.9,1.9-0.9c0.1,0,0.2,0,0.3,0
		c0.1,0,0.3,0,0.4,0c0,0,0,0,0,0c0,0,0,0,0,0L20.6,5.3C20.6,5.3,20.6,5.3,20.6,5.3z"/>
	<path d="M29.6,14.1c-0.1-0.1-0.3-0.2-0.3-0.3c-0.1-0.1-0.1-0.3-0.1-0.6c0-0.4,0-0.7,0-1V8.1c0-1.1-0.4-1.8-1.2-2.2
		c-0.8-0.4-1.7-0.6-2.8-0.6c-1.6,0-2.7,0.4-3.4,1.2C21.3,7,21.1,7.6,21,8.4c0,0,0,0,0,0c0,0,0,0,0,0h2.4c0,0,0,0,0,0
		c0.1-0.3,0.2-0.6,0.3-0.8c0.2-0.3,0.6-0.4,1.2-0.4c0.5,0,0.9,0.1,1.2,0.2c0.3,0.1,0.4,0.4,0.4,0.7c0,0.3-0.2,0.5-0.5,0.6
		c-0.2,0.1-0.5,0.1-1,0.2l-0.8,0.1c-1,0.1-1.7,0.3-2.2,0.6c-0.9,0.5-1.4,1.3-1.4,2.4c0,0.9,0.3,1.5,0.9,2c0.6,0.5,1.3,0.7,2.2,0.7
		c0.7,0,1.3-0.1,1.8-0.4c0.4-0.2,0.8-0.5,1.1-0.8c0,0.2,0,0.3,0.1,0.4c0,0.2,0.1,0.3,0.2,0.5c0,0,0,0,0.1,0h2.7c0,0,0,0,0,0
		L29.6,14.1C29.7,14.1,29.6,14.1,29.6,14.1z M26.6,10.2V11c0,0.8-0.2,1.3-0.7,1.6C25.5,12.8,25,13,24.4,13c-0.3,0-0.6-0.1-0.8-0.3
		c-0.2-0.2-0.3-0.4-0.3-0.8c0-0.4,0.2-0.7,0.6-1c0.2-0.1,0.6-0.2,1.1-0.3l0.6-0.1c0.3,0,0.5-0.1,0.7-0.2
		C26.3,10.3,26.5,10.3,26.6,10.2z"/>
	<path d="M35.4,5.3c-0.8,0-1.4,0.2-2,0.6c-0.3,0.2-0.5,0.5-0.8,0.8V5.5c0,0,0,0,0,0h-2.4c0,0,0,0,0,0V18c0,0,0,0,0,0h2.4
		c0,0,0,0,0,0v-4.5c0.2,0.3,0.5,0.6,0.7,0.8c0.5,0.4,1.2,0.5,1.9,0.5c1.2,0,2.2-0.4,2.9-1.2c0.8-0.8,1.1-2,1.1-3.6
		c0-1.5-0.4-2.6-1.2-3.4C37.5,5.7,36.6,5.3,35.4,5.3z M36.8,10c0,0.8-0.2,1.5-0.5,2c-0.4,0.5-0.9,0.7-1.5,0.7
		c-0.5,0-0.9-0.1-1.2-0.4c-0.6-0.4-0.9-1.1-0.9-2.1c0-0.6,0.1-1.2,0.3-1.6c0.3-0.8,0.9-1.2,1.8-1.2c0.7,0,1.3,0.3,1.6,0.8
		C36.7,8.7,36.8,9.3,36.8,10z"/>
	<path d="M48.2,6.4C47.9,6,47.5,5.7,47,5.5c-0.5-0.2-1-0.3-1.6-0.3c-0.5,0-1,0.1-1.5,0.3c-0.4,0.2-0.8,0.5-1.2,1V2.4
		c0,0,0-0.1,0-0.1h-2.5c0,0,0,0,0,0.1v12c0,0,0,0,0,0h2.5c0,0,0,0,0,0V9.6c0-0.7,0.2-1.3,0.5-1.7c0.3-0.4,0.8-0.6,1.4-0.6
		c0.6,0,1,0.2,1.2,0.6c0.2,0.3,0.2,0.7,0.2,1.1v5.4c0,0,0,0,0.1,0h2.5c0,0,0,0,0,0V9.2c0-0.8,0-1.4-0.1-1.7
		C48.6,7.1,48.5,6.7,48.2,6.4z"/>
	<path d="M55.2,5.3c-0.8,0-1.4,0.2-2,0.6c-0.3,0.2-0.5,0.5-0.8,0.8V5.5c0,0,0,0-0.1,0h-2.4c0,0-0.1,0-0.1,0V18c0,0,0,0,0.1,0h2.4
		c0,0,0,0,0,0v-4.5c0.2,0.3,0.5,0.6,0.7,0.8c0.5,0.4,1.1,0.5,1.9,0.5c1.2,0,2.2-0.4,2.9-1.2c0.8-0.8,1.1-2,1.1-3.6
		c0-1.5-0.4-2.6-1.2-3.4C57.3,5.7,56.4,5.3,55.2,5.3z M56.6,10c0,0.8-0.2,1.5-0.5,2c-0.4,0.5-0.9,0.7-1.5,0.7
		c-0.5,0-0.9-0.1-1.2-0.4c-0.6-0.4-0.9-1.1-0.9-2.1c0-0.6,0.1-1.2,0.3-1.6c0.3-0.8,0.9-1.2,1.8-1.2c0.7,0,1.3,0.3,1.6,0.8
		C56.5,8.7,56.6,9.3,56.6,10z"/>
	<path d="M68.6,14.1c-0.2-0.1-0.3-0.2-0.3-0.3c-0.1-0.1-0.1-0.3-0.1-0.6c0-0.4,0-0.8,0-1V8.1c0-1.1-0.4-1.8-1.2-2.2
		c-0.8-0.4-1.7-0.6-2.8-0.6c-1.6,0-2.7,0.4-3.4,1.2C60.3,7,60,7.6,60,8.4c0,0,0,0,0,0c0,0,0,0,0,0h2.4c0,0,0,0,0.1,0
		c0.1-0.3,0.2-0.6,0.3-0.8C63,7.4,63.4,7.2,64,7.2c0.5,0,0.9,0.1,1.2,0.2c0.3,0.1,0.4,0.4,0.4,0.7c0,0.3-0.2,0.5-0.5,0.6
		c-0.2,0.1-0.5,0.1-1,0.2l-0.8,0.1c-1,0.1-1.7,0.3-2.2,0.6c-0.9,0.5-1.4,1.3-1.4,2.4c0,0.9,0.3,1.5,0.9,2c0.6,0.5,1.3,0.7,2.1,0.7
		c0.7,0,1.3-0.1,1.8-0.4c0.4-0.2,0.8-0.5,1.1-0.8c0,0.2,0,0.3,0.1,0.4c0,0.2,0.1,0.3,0.2,0.5c0,0,0,0,0,0h2.7c0,0,0.1,0,0.1,0
		L68.6,14.1C68.6,14.1,68.6,14.1,68.6,14.1z M65.5,10.2V11c0,0.8-0.2,1.3-0.7,1.6c-0.4,0.3-0.9,0.4-1.5,0.4c-0.3,0-0.6-0.1-0.8-0.3
		c-0.2-0.2-0.3-0.4-0.3-0.8c0-0.4,0.2-0.7,0.6-1c0.2-0.1,0.6-0.2,1.1-0.3l0.6-0.1c0.3,0,0.5-0.1,0.7-0.2
		C65.3,10.3,65.4,10.3,65.5,10.2z"/>
	<path d="M74.4,5.3c-0.8,0-1.4,0.2-2,0.6c-0.3,0.2-0.5,0.5-0.8,0.8V5.5c0,0,0,0,0,0h-2.4c0,0,0,0,0,0V18c0,0,0,0,0,0h2.4
		c0,0,0.1,0,0.1,0v-4.5c0.2,0.3,0.5,0.6,0.7,0.8c0.5,0.4,1.1,0.5,1.9,0.5c1.2,0,2.2-0.4,2.9-1.2c0.7-0.8,1.1-2,1.1-3.6
		c0-1.5-0.4-2.6-1.2-3.4C76.5,5.7,75.5,5.3,74.4,5.3z M75.8,10c0,0.8-0.2,1.5-0.5,2c-0.4,0.5-0.9,0.7-1.5,0.7
		c-0.5,0-0.9-0.1-1.2-0.4c-0.6-0.4-0.9-1.1-0.9-2.1c0-0.6,0.1-1.2,0.3-1.6c0.3-0.8,0.9-1.2,1.8-1.2c0.7,0,1.3,0.3,1.6,0.8
		C75.6,8.7,75.8,9.3,75.8,10z"/>
	<path d="M87.4,7c-0.4-0.6-1-1.1-1.6-1.3c-0.7-0.3-1.4-0.4-2.2-0.4c-1.4,0-2.5,0.4-3.4,1.3c-0.9,0.8-1.3,2-1.3,3.6
		c0,1.7,0.5,2.9,1.5,3.6c1,0.7,2.1,1.1,3.3,1.1c1.5,0,2.7-0.4,3.6-1.3c0.5-0.5,0.9-1.1,0.9-1.6c0,0,0,0,0,0c0,0,0,0,0,0h-2.5
		c0,0,0,0,0,0c-0.1,0.3-0.3,0.5-0.5,0.6c-0.3,0.3-0.8,0.4-1.3,0.4c-0.5,0-1-0.1-1.3-0.3c-0.6-0.3-0.9-1-1-1.8h6.8c0,0,0,0,0,0
		c0-0.8,0-1.4-0.1-1.8C88,8.1,87.8,7.5,87.4,7z M81.4,9c0.1-0.5,0.3-1,0.6-1.3c0.3-0.3,0.8-0.5,1.4-0.5c0.6,0,1,0.2,1.4,0.5
		C85.3,8,85.5,8.5,85.6,9H81.4z"/>
	<path d="M94.1,5.3c-0.1,0-0.2,0-0.2,0c0,0-0.1,0-0.1,0c-0.7,0-1.4,0.2-1.8,0.6c-0.3,0.2-0.6,0.6-0.9,1.1V5.5c0,0,0,0,0,0h-2.3
		c0,0-0.1,0-0.1,0v8.9c0,0,0,0,0.1,0h2.5c0,0,0.1,0,0.1,0v-4.3c0-0.7,0.1-1.2,0.3-1.6c0.3-0.6,1-0.9,2-0.9c0.1,0,0.2,0,0.3,0
		c0.1,0,0.3,0,0.4,0c0,0,0,0,0,0c0,0,0,0,0,0L94.1,5.3C94.2,5.3,94.2,5.3,94.1,5.3z"/>
</g>
</svg>
